<?xml version="1.0" encoding="UTF-8"?>
<svg xmlns="http://www.w3.org/2000/svg" width="64px" height="64px" preserveAspectRatio="meet"
     viewBox="26 -194.75 298.4 214.5" fill="#fff">
    <!--  hb-view NotoEmoji-VariableFont_wght.ttf &#45;&#45;variations="wght=900" $'\U1f325' -O svg | grep ' d=' | awk -F'"' '{print $2}'  -->
    <path d="M 65 18.75 C 52.667969 18.75 43.25 15.8125 36.75 9.9375 C 30.25 4.0625 27 -4 27 -14.25 C 27 -24.332031 30.769531 -32.6875 38.3125 -39.3125 C 45.855469 -45.9375 55.917969 -49.707031 68.5 -50.625 C 69.25 -58.707031 71.792969 -65.980469 76.125 -72.4375 C 80.457031 -78.894531 86.042969 -84.019531 92.875 -87.8125 C 99.707031 -91.605469 107.167969 -93.5 115.25 -93.5 C 124.917969 -93.5 133.5 -91.457031 141 -87.375 C 148.5 -83.292969 154.417969 -77.6875 158.75 -70.5625 C 163.082031 -63.4375 165.25 -55.375 165.25 -46.375 L 151.5 -46.375 C 151.5 -52.957031 150.0625 -58.75 147.1875 -63.75 C 144.3125 -68.75 140.3125 -72.667969 135.1875 -75.5 C 130.0625 -78.332031 124.167969 -79.75 117.5 -79.75 C 111.082031 -79.75 105.207031 -78.167969 99.875 -75 C 94.542969 -71.832031 90.292969 -67.644531 87.125 -62.4375 C 83.957031 -57.230469 82.375 -51.457031 82.375 -45.125 L 82.375 -37.875 C 72.625 -37.207031 64.792969 -35.957031 58.875 -34.125 C 52.957031 -32.292969 48.667969 -29.769531 46 -26.5625 C 43.332031 -23.355469 42 -19.25 42 -14.25 C 42 -8 44.144531 -3.230469 48.4375 0.0625 C 52.730469 3.355469 59.5 5 68.75 5 L 253.625 5 C 263.457031 5 270.8125 3.167969 275.6875 -0.5 C 280.5625 -4.167969 283 -9.667969 283 -17 C 283 -25.332031 279.75 -31.644531 273.25 -35.9375 C 266.75 -40.230469 258.042969 -42.792969 247.125 -43.625 C 248.207031 -47.542969 249.042969 -51.519531 249.625 -55.5625 C 250.207031 -59.605469 250.5 -63.542969 250.5 -67.375 C 250.5 -75.707031 249 -83.5 246 -90.75 C 243 -98 238.832031 -104.394531 233.5 -109.9375 C 228.167969 -115.480469 221.9375 -119.8125 214.8125 -122.9375 C 207.6875 -126.0625 199.957031 -127.625 191.625 -127.625 C 183.042969 -127.625 175.042969 -125.957031 167.625 -122.625 C 160.207031 -119.292969 153.75 -114.625 148.25 -108.625 C 142.75 -102.625 138.582031 -95.667969 135.75 -87.75 L 121.375 -91.375 C 124.625 -101.292969 129.75 -110 136.75 -117.5 C 143.75 -125 152 -130.855469 161.5 -135.0625 C 171 -139.269531 181.042969 -141.375 191.625 -141.375 C 201.625 -141.375 211.082031 -139.5 220 -135.75 C 228.917969 -132 236.769531 -126.792969 243.5625 -120.125 C 250.355469 -113.457031 255.707031 -105.730469 259.625 -96.9375 C 263.542969 -88.144531 265.5 -78.707031 265.5 -68.625 C 265.5 -64.125 265.042969 -59.375 264.125 -54.375 C 274.542969 -52.625 282.792969 -48.375 288.875 -41.625 C 294.957031 -34.875 298 -26.667969 298 -17 C 298 -6.167969 293.957031 2.5 285.875 9 C 277.792969 15.5 267.042969 18.75 253.625 18.75 Z M 89 -75.25 C 82.667969 -79.332031 77.542969 -84.75 73.625 -91.5 C 69.707031 -98.25 67.75 -105.707031 67.75 -113.875 C 67.75 -122.207031 69.792969 -129.855469 73.875 -136.8125 C 77.957031 -143.769531 83.480469 -149.355469 90.4375 -153.5625 C 97.394531 -157.769531 105.167969 -159.875 113.75 -159.875 C 124.417969 -159.875 133.832031 -156.625 142 -150.125 C 150.167969 -143.625 155.542969 -135.457031 158.125 -125.625 L 147.875 -120.375 C 146.875 -125.542969 144.707031 -130.25 141.375 -134.5 C 138.042969 -138.75 133.957031 -142.167969 129.125 -144.75 C 124.292969 -147.332031 119.167969 -148.625 113.75 -148.625 C 107.582031 -148.625 101.855469 -147.019531 96.5625 -143.8125 C 91.269531 -140.605469 87.019531 -136.355469 83.8125 -131.0625 C 80.605469 -125.769531 79 -120.042969 79 -113.875 C 79 -107.542969 80.605469 -101.792969 83.8125 -96.625 C 87.019531 -91.457031 91.207031 -87.457031 96.375 -84.625 Z M 58 -64.125 C 54.917969 -63.375 52.269531 -63.730469 50.0625 -65.1875 C 47.855469 -66.644531 46.480469 -68.707031 45.9375 -71.375 C 45.394531 -74.042969 46.042969 -76.707031 47.875 -79.375 L 65 -103.625 L 39.125 -118.75 C 36.457031 -120.332031 34.832031 -122.457031 34.25 -125.125 C 33.667969 -127.792969 34.082031 -130.292969 35.5 -132.625 C 36.917969 -134.957031 39.207031 -136.375 42.375 -136.875 L 71 -141.5 L 63.75 -170.875 C 63 -174.042969 63.332031 -176.6875 64.75 -178.8125 C 66.167969 -180.9375 68.144531 -182.25 70.6875 -182.75 C 73.230469 -183.25 75.75 -182.542969 78.25 -180.625 L 102.75 -162.625 L 118.625 -188.75 C 120.542969 -192.082031 123.332031 -193.75 127 -193.75 C 129.332031 -193.75 131.332031 -192.917969 133 -191.25 C 134.667969 -189.582031 135.667969 -187.582031 136 -185.25 L 140.75 -155.625 L 171.25 -162.625 C 174.167969 -163.292969 176.605469 -162.9375 178.5625 -161.5625 C 180.519531 -160.1875 181.707031 -158.3125 182.125 -155.9375 C 182.542969 -153.5625 181.832031 -151.125 180 -148.625 L 159 -119.75 L 151.625 -129.5 L 165.25 -148.5 C 165.417969 -148.75 165.4375 -148.980469 165.3125 -149.1875 C 165.1875 -149.394531 164.957031 -149.457031 164.625 -149.375 L 136.875 -143 L 130.75 -147.125 L 126.125 -175.75 C 125.957031 -176.167969 125.792969 -176.375 125.625 -176.375 C 125.457031 -176.375 125.292969 -176.25 125.125 -176 L 110.75 -152.625 L 99.5 -150.375 L 77.625 -166.5 C 77.457031 -166.667969 77.25 -166.667969 77 -166.5 C 76.75 -166.332031 76.667969 -166.125 76.75 -165.875 L 83.625 -137.125 L 79.875 -131.5 L 51.375 -126.75 C 51.125 -126.667969 50.957031 -126.519531 50.875 -126.3125 C 50.792969 -126.105469 50.875 -125.917969 51.125 -125.75 L 74.5 -112.125 L 77.25 -100.75 L 61.125 -77.75 C 60.957031 -77.5 60.9375 -77.269531 61.0625 -77.0625 C 61.1875 -76.855469 61.417969 -76.792969 61.75 -76.875 L 86.375 -82.875 L 91.5 -72.5 Z M 58 -64.125"/>
</svg>
